<?xml version="1.0" encoding="UTF-8"?>
<svg fill="#B47CFF" id="Capa_1" data-name="Capa 1" xmlns="http://www.w3.org/2000/svg" viewBox="0 0 1080 1080">
  <circle cx="214.72" cy="691.65" r="44.82"/>
  <path d="M925.07,107.45H157.98c-23.98,0-43.41,19.44-43.41,43.41v355.28c0,6.33,5.13,11.46,11.46,11.46h831c6.33,0,11.46-5.13,11.46-11.46V150.86c0-23.98-19.44-43.41-43.41-43.41ZM540.12,134.35c9.46,0,17.13,7.67,17.13,17.13s-7.67,17.13-17.13,17.13-17.13-7.67-17.13-17.13,7.67-17.13,17.13-17.13ZM170.55,322.62c-5.58,0-10.09-4.52-10.09-10.09s4.52-10.09,10.09-10.09,10.09,4.52,10.09,10.09-4.52,10.09-10.09,10.09ZM205.28,357.35c-5.57,0-10.09-4.52-10.09-10.09s4.52-10.09,10.09-10.09,10.09,4.52,10.09,10.09-4.52,10.09-10.09,10.09ZM205.28,322.62c-5.57,0-10.09-4.52-10.09-10.09s4.52-10.09,10.09-10.09,10.09,4.52,10.09,10.09-4.52,10.09-10.09,10.09ZM205.28,287.89c-5.57,0-10.09-4.52-10.09-10.09s4.52-10.09,10.09-10.09,10.09,4.52,10.09,10.09-4.52,10.09-10.09,10.09ZM240.01,322.62c-5.57,0-10.09-4.52-10.09-10.09s4.52-10.09,10.09-10.09,10.09,4.52,10.09,10.09-4.52,10.09-10.09,10.09ZM831.93,322.62c-5.58,0-10.09-4.52-10.09-10.09s4.52-10.09,10.09-10.09,10.09,4.52,10.09,10.09-4.52,10.09-10.09,10.09ZM866.67,357.35c-5.57,0-10.09-4.52-10.09-10.09s4.52-10.09,10.09-10.09,10.09,4.52,10.09,10.09-4.52,10.09-10.09,10.09ZM866.67,322.62c-5.57,0-10.09-4.52-10.09-10.09s4.52-10.09,10.09-10.09,10.09,4.52,10.09,10.09-4.52,10.09-10.09,10.09ZM866.67,287.89c-5.57,0-10.09-4.52-10.09-10.09s4.52-10.09,10.09-10.09,10.09,4.52,10.09,10.09-4.52,10.09-10.09,10.09ZM901.4,322.62c-5.57,0-10.09-4.52-10.09-10.09s4.52-10.09,10.09-10.09,10.09,4.52,10.09,10.09-4.52,10.09-10.09,10.09ZM773.81,490.7h-465.69c-6.63,0-12.01-5.38-12.01-12.01V204.63c0-6.63,5.38-12.01,12.01-12.01h465.69c6.63,0,12.01,5.38,12.01,12.01v274.06c0,6.63-5.38,12.01-12.01,12.01ZM961.47,397.14c0,1.69-1.38,3.07-3.07,3.07h-14.37c-1.69,0-3.07-1.38-3.07-3.07v-36.72c0-1.69,1.38-3.07,3.07-3.07h14.37c1.69,0,3.07,1.38,3.07,3.07v36.72Z"/>
  <path d="M326.32,586.55v376.73c0,8.42,6.83,15.25,15.25,15.25h397.71c8.42,0,15.25-6.83,15.25-15.25v-376.73h-428.22ZM452.6,954.86c0,1.93-1.58,3.5-3.5,3.5h-80.4c-1.93,0-3.5-1.58-3.5-3.5v-17.37c0-1.93,1.58-3.5,3.5-3.5h80.4c1.93,0,3.5,1.58,3.5,3.5v17.37ZM585.67,954.86c0,1.93-1.58,3.5-3.5,3.5h-80.4c-1.93,0-3.5-1.58-3.5-3.5v-17.37c0-1.93,1.58-3.5,3.5-3.5h80.4c1.93,0,3.5,1.58,3.5,3.5v17.37ZM718.74,954.86c0,1.93-1.58,3.5-3.5,3.5h-80.4c-1.93,0-3.5-1.58-3.5-3.5v-17.37c0-1.93,1.58-3.5,3.5-3.5h80.4c1.93,0,3.5,1.58,3.5,3.5v17.37ZM741.72,899.47c0,3.27-2.67,5.94-5.94,5.94h-390.71c-3.27,0-5.94-2.67-5.94-5.94v-293.21c0-3.27,2.67-5.94,5.94-5.94h390.71c3.27,0,5.94,2.67,5.94,5.94v293.21Z"/>
  <path d="M936.41,528.04H147.52c-18.12,0-32.95,14.83-32.95,32.95v384.6c0,18.12,14.83,32.95,32.95,32.95h167.36v-402.42h449.1v402.42h172.43c18.12,0,32.95-14.83,32.95-32.95v-384.6c0-18.12-14.83-32.95-32.95-32.95ZM272.67,863.42c0,3.88-3.17,7.05-7.05,7.05h-31.14v31.14c0,3.88-3.17,7.05-7.05,7.05h-25.41c-3.88,0-7.05-3.17-7.05-7.05v-31.14h-31.14c-3.88,0-7.05-3.17-7.05-7.05v-25.41c0-3.88,3.17-7.05,7.05-7.05h31.14v-31.14c0-3.88,3.17-7.05,7.05-7.05h25.41c3.88,0,7.05,3.17,7.05,7.05v31.14h31.14c3.88,0,7.05,3.17,7.05,7.05v25.41ZM214.72,767.37c-41.82,0-75.72-33.9-75.72-75.72s33.9-75.72,75.72-75.72,75.72,33.9,75.72,75.72-33.9,75.72-75.72,75.72ZM889.39,659.34c0,12.55-10.18,22.73-22.73,22.73s-22.73-10.18-22.73-22.73,10.18-22.73,22.73-22.73,22.73,10.18,22.73,22.73ZM814.4,936.07c0,2.6-2.13,4.73-4.73,4.73h-21.92c-2.6,0-4.73-2.13-4.73-4.73v-21.92c0-2.6,2.13-4.73,4.73-4.73h21.92c2.6,0,4.73,2.13,4.73,4.73v21.92ZM821.33,727.41c-12.55,0-22.73-10.18-22.73-22.73s10.18-22.73,22.73-22.73,22.73,10.18,22.73,22.73-10.18,22.73-22.73,22.73ZM866.67,772.75c-12.55,0-22.73-10.18-22.73-22.73s10.18-22.73,22.73-22.73,22.73,10.18,22.73,22.73-10.18,22.73-22.73,22.73ZM912,727.41c-12.55,0-22.73-10.18-22.73-22.73s10.18-22.73,22.73-22.73,22.73,10.18,22.73,22.73-10.18,22.73-22.73,22.73ZM933.11,551.38c0-2.6,2.13-4.73,4.73-4.73h6.24c2.6,0,4.73,2.13,4.73,4.73v6.24c0,2.6-2.13,4.73-4.73,4.73h-6.24c-2.6,0-4.73-2.13-4.73-4.73v-6.24Z"/>
</svg>