<?xml version="1.0" encoding="UTF-8"?>
<svg fill="#B47CFF" id="Capa_1" data-name="Capa 1" xmlns="http://www.w3.org/2000/svg" viewBox="0 0 1080 1080">
  <rect x="407.87" y="210.18" width="280.16" height="254.39" rx="6.69" ry="6.69"/>
  <path d="M784.04,101.47h-472.17c-16.95,0-30.7,13.74-30.7,30.7v802.61c0,16.95,13.74,30.7,30.7,30.7h387.89c63.5,0,114.98-51.48,114.98-114.98V132.16c0-16.95-13.74-30.7-30.7-30.7ZM321.23,176.05c0-5.62,4.6-10.21,10.21-10.21h433.03c5.62,0,10.21,4.6,10.21,10.21v254.76c0,39.94-32.68,72.62-72.62,72.62h-370.62c-5.62,0-10.21-4.6-10.21-10.21V176.05ZM770.39,660.78c0,18.17-14.73,32.9-32.9,32.9s-32.9-14.73-32.9-32.9,14.73-32.9,32.9-32.9,32.9,14.73,32.9,32.9ZM406.6,744.36c0,4.4-3.6,8.01-8.01,8.01h-28.85c-4.4,0-8.01-3.6-8.01-8.01v-35.36h-35.36c-4.4,0-8.01-3.6-8.01-8.01v-28.85c0-4.4,3.6-8.01,8.01-8.01h35.36v-35.36c0-4.4,3.6-8.01,8.01-8.01h28.85c4.4,0,8.01,3.6,8.01,8.01v35.36h35.36c4.4,0,8.01,3.6,8.01,8.01v28.85c0,4.4-3.6,8.01-8.01,8.01h-35.36v35.36ZM495.55,811.43l-48.34,25.56c-4.97,2.63-11.18.71-13.8-4.25l-.48-.91c-2.63-4.97-.71-11.18,4.25-13.8l48.34-25.56c4.97-2.63,11.18-.71,13.8,4.25l.48.91c2.63,4.97.71,11.18-4.25,13.8ZM588.53,811.43l-48.34,25.56c-4.97,2.63-11.18.71-13.8-4.25l-.48-.91c-2.63-4.97-.71-11.18,4.25-13.8l48.34-25.56c4.97-2.63,11.18-.71,13.8,4.25l.48.91c2.63,4.97.71,11.18-4.25,13.8ZM614.26,700.32c0-18.17,14.73-32.9,32.9-32.9s32.9,14.73,32.9,32.9-14.73,32.9-32.9,32.9-32.9-14.73-32.9-32.9ZM672.3,937.07h0c-4.97,2.63-11.18.71-13.8-4.25l-33.31-63.01c-2.63-4.97-.71-11.18,4.25-13.8,4.97-2.63,11.18-.71,13.8,4.25l33.31,63.01c2.63,4.97.71,11.18-4.25,13.8ZM699.16,922.86c-4.97,2.63-11.18.71-13.8-4.25l-33.31-63.01c-2.63-4.97-.71-11.18,4.25-13.8,4.97-2.63,11.18-.71,13.8,4.25l33.31,63.01c2.63,4.97.71,11.18-4.25,13.8ZM726.02,908.66c-4.97,2.63-11.18.71-13.8-4.25l-33.31-63.01c-2.63-4.97-.71-11.18,4.25-13.8h0c4.97-2.63,11.18-.71,13.8,4.25l33.31,63.01c2.63,4.97.71,11.18-4.25,13.8ZM752.88,894.46c-4.97,2.63-11.18.71-13.8-4.25l-33.31-63.01c-2.63-4.97-.71-11.18,4.25-13.8,4.97-2.63,11.18-.71,13.8,4.25l33.31,63.01c2.63,4.97.71,11.18-4.25,13.8ZM779.74,880.26c-4.97,2.63-11.18.71-13.8-4.25l-33.31-63.01c-2.63-4.97-.71-11.18,4.25-13.8s11.18-.71,13.8,4.25l33.31,63.01c2.63,4.97.71,11.18-4.25,13.8Z"/>
</svg>