<?xml version="1.0" encoding="UTF-8"?>
<svg fill="#B47CFF" id="Capa_1" data-name="Capa 1" xmlns="http://www.w3.org/2000/svg" viewBox="0 0 1080 1080">
  <rect x="327.39" y="359.95" width="447.13" height="303.69" rx="6.7" ry="6.7"/>
  <path d="M1045.59,669.51l-3.03-61.04c-2.78-55.94-8.21-111.72-16.26-167.16l-12.95-89.18c-2.13-14.64-13.85-26.08-28.67-27.99l-32.38-4.18c-31.59-4.08-61.96-14.72-89.1-31.22l-9.53-5.8c-29.76-18.1-64.01-27.67-98.94-27.67h-408.02c-34.93,0-69.18,9.58-98.94,27.67l-9.53,5.8c-27.14,16.5-57.5,27.14-89.1,31.22l-32.38,4.18c-14.82,1.91-26.54,13.36-28.67,27.99l-12.95,89.18c-8.05,55.44-13.48,111.22-16.26,167.16l-3.04,61.04c-1.8,36.2,22.6,68.58,58.19,77.21l98.94,24c23.95,5.81,47.46,13.26,70.36,22.31h0c62.57,24.71,200.02,34.97,267.39,34.97s204.82-10.26,267.39-34.97h0c22.9-9.04,46.41-16.5,70.36-22.31l98.94-24c35.59-8.63,59.99-41.01,58.19-77.21ZM203.37,514.76v33.74c0,4.2-3.44,7.64-7.64,7.64h-27.53c-4.2,0-7.64-3.44-7.64-7.64v-33.74h-33.74c-4.2,0-7.64-3.44-7.64-7.64v-27.53c0-4.2,3.44-7.64,7.64-7.64h33.74v-33.74c0-4.2,3.44-7.64,7.64-7.64h27.53c4.2,0,7.64,3.44,7.64,7.64v33.74h33.74c4.2,0,7.64,3.44,7.64,7.64v27.53c0,4.2-3.44,7.64-7.64,7.64h-33.74ZM244.75,708.45c-8.52,0-15.43-6.91-15.43-15.43s6.91-15.43,15.43-15.43,15.43,6.91,15.43,15.43-6.91,15.43-15.43,15.43ZM244.75,649.05c-8.52,0-15.43-6.91-15.43-15.43s6.91-15.43,15.43-15.43,15.43,6.91,15.43,15.43-6.91,15.43-15.43,15.43ZM817.77,684.91c0,32.59-23.33,60.51-55.4,66.3l-10.58,1.91c-132.97,23.99-269.17,23.99-402.14,0l-10.58-1.91c-32.07-5.79-55.4-33.7-55.4-66.3v-1.17c0-99.08,5.24-198.09,15.7-296.62l2.57-24.23c1.75-16.53,14.98-29.51,31.55-30.94l9.15-.79c138.47-12,277.71-12,416.18,0l9.15.79c16.57,1.44,29.79,14.41,31.55,30.94l2.57,24.22c10.46,98.53,15.7,197.54,15.7,296.62v1.17ZM881.9,480.82c17.34,0,31.4,14.06,31.4,31.39s-14.06,31.39-31.4,31.39-31.39-14.06-31.39-31.39,14.06-31.39,31.39-31.39ZM951.82,695.59l-90.39,24.19c-4.61,1.23-9.4-1.53-10.64-6.14-1.23-4.61,1.53-9.4,6.14-10.64l90.39-24.19c4.61-1.23,9.4,1.53,10.63,6.14,1.24,4.61-1.53,9.4-6.14,10.63ZM951.82,669.37l-90.39,24.19c-4.61,1.24-9.4-1.53-10.64-6.14-1.23-4.61,1.53-9.4,6.14-10.64l90.39-24.19c4.61-1.23,9.4,1.53,10.63,6.14,1.24,4.61-1.53,9.4-6.14,10.63ZM951.82,641.49l-90.39,24.19c-4.61,1.23-9.4-1.53-10.64-6.14-1.23-4.61,1.53-9.4,6.14-10.63l90.39-24.19c4.61-1.23,9.4,1.53,10.63,6.14,1.24,4.61-1.53,9.4-6.14,10.64ZM951.82,610.67l-90.39,24.19c-4.61,1.23-9.4-1.53-10.64-6.14-1.23-4.61,1.53-9.4,6.14-10.63l90.39-24.19c4.61-1.24,9.4,1.53,10.63,6.14,1.24,4.61-1.53,9.4-6.14,10.64ZM968.09,505.88c-17.34,0-31.39-14.06-31.39-31.39s14.06-31.39,31.39-31.39,31.39,14.06,31.39,31.39-14.06,31.39-31.39,31.39Z"/>
</svg>