<?xml version="1.0" encoding="UTF-8"?>
<svg fill="#B47CFF" id="Capa_1" data-name="Capa 1" xmlns="http://www.w3.org/2000/svg" viewBox="0 0 1080 1080">
  <path d="M787.77,107.35h-470.8c-6.6,0-12,5.4-12,12v748.51c0,18.8,10.58,35.25,26.08,43.69,33.03,18.55,119.65,31.78,221.31,31.78s188.28-13.24,221.31-31.78c15.5-8.44,26.08-24.89,26.08-43.69V119.35c0-6.6-5.4-12-12-12ZM472.28,673.02c0,4.2-3.44,7.64-7.64,7.64h-33.74v33.74c0,4.2-3.44,7.64-7.64,7.64h-27.53c-4.2,0-7.64-3.44-7.64-7.64v-33.74h-33.74c-4.2,0-7.64-3.44-7.64-7.64v-27.53c0-4.2,3.44-7.64,7.64-7.64h33.74v-33.74c0-4.2,3.44-7.64,7.64-7.64h27.53c4.2,0,7.64,3.44,7.64,7.64v33.74h33.74c4.2,0,7.64,3.44,7.64,7.64v27.53ZM527.16,809.04h-22.69c-5.78,0-10.51-4.73-10.51-10.51s4.73-10.51,10.51-10.51h22.69c5.78,0,10.51,4.73,10.51,10.51s-4.73,10.51-10.51,10.51ZM552.3,526.94c-104.14,0-190.86-7.62-209.74-17.69-.07-.04-.15-.08-.22-.12-1.39-.76-2.4-1.54-2.99-2.33-2.08-2.21-3.37-5.17-3.37-8.44V152.07c0-6.8,5.51-12.32,12.32-12.32h408.15c6.8,0,12.32,5.52,12.32,12.32v346.29c0,5.28-3.33,9.77-7.99,11.52-21.24,9.77-106.51,17.07-208.48,17.07ZM758.04,640.65c0,17.34-14.06,31.39-31.39,31.39s-31.39-14.06-31.39-31.39,14.06-31.39,31.39-31.39,31.39,14.06,31.39,31.39ZM600.28,809.04h-22.69c-5.78,0-10.51-4.73-10.51-10.51s4.73-10.51,10.51-10.51h22.69c5.78,0,10.51,4.73,10.51,10.51s-4.73,10.51-10.51,10.51ZM640.45,709.77c-17.34,0-31.39-14.06-31.39-31.39s14.06-31.39,31.39-31.39,31.39,14.06,31.39,31.39-14.06,31.39-31.39,31.39ZM677.68,881.52c-4.4,0-7.97-3.57-7.97-7.97s3.57-7.97,7.97-7.97,7.97,3.57,7.97,7.97-3.57,7.97-7.97,7.97ZM677.68,858.83c-4.4,0-7.97-3.57-7.97-7.97s3.57-7.97,7.97-7.97,7.97,3.57,7.97,7.97-3.57,7.97-7.97,7.97ZM677.68,836.14c-4.4,0-7.97-3.57-7.97-7.97s3.57-7.97,7.97-7.97,7.97,3.57,7.97,7.97-3.57,7.97-7.97,7.97ZM698.93,794.79c4.4,0,7.97,3.57,7.97,7.97s-3.57,7.97-7.97,7.97-7.97-3.57-7.97-7.97,3.57-7.97,7.97-7.97ZM699.65,900.84c-4.4,0-7.97-3.57-7.97-7.97s3.57-7.97,7.97-7.97,7.97,3.57,7.97,7.97-3.57,7.97-7.97,7.97ZM699.65,878.14c-4.4,0-7.97-3.57-7.97-7.97s3.57-7.97,7.97-7.97,7.97,3.57,7.97,7.97-3.57,7.97-7.97,7.97ZM699.65,855.45c-4.4,0-7.97-3.57-7.97-7.97s3.57-7.97,7.97-7.97,7.97,3.57,7.97,7.97-3.57,7.97-7.97,7.97ZM699.65,832.76c-4.4,0-7.97-3.57-7.97-7.97s3.57-7.97,7.97-7.97,7.97,3.57,7.97,7.97-3.57,7.97-7.97,7.97ZM720.89,791.41c4.4,0,7.97,3.57,7.97,7.97s-3.57,7.97-7.97,7.97-7.97-3.57-7.97-7.97,3.57-7.97,7.97-7.97ZM721.62,897.46c-4.4,0-7.97-3.57-7.97-7.97s3.57-7.97,7.97-7.97,7.97,3.57,7.97,7.97-3.57,7.97-7.97,7.97ZM721.62,874.77c-4.4,0-7.97-3.57-7.97-7.97s3.57-7.97,7.97-7.97,7.97,3.57,7.97,7.97-3.57,7.97-7.97,7.97ZM721.62,852.07c-4.4,0-7.97-3.57-7.97-7.97s3.57-7.97,7.97-7.97,7.97,3.57,7.97,7.97-3.57,7.97-7.97,7.97ZM721.62,829.38c-4.4,0-7.97-3.57-7.97-7.97s3.57-7.97,7.97-7.97,7.97,3.57,7.97,7.97-3.57,7.97-7.97,7.97ZM742.86,788.03c4.4,0,7.97,3.57,7.97,7.97s-3.57,7.97-7.97,7.97-7.97-3.57-7.97-7.97,3.57-7.97,7.97-7.97ZM743.58,894.08c-4.4,0-7.97-3.57-7.97-7.97s3.57-7.97,7.97-7.97,7.97,3.57,7.97,7.97-3.57,7.97-7.97,7.97ZM743.58,871.39c-4.4,0-7.97-3.57-7.97-7.97s3.57-7.97,7.97-7.97,7.97,3.57,7.97,7.97-3.57,7.97-7.97,7.97ZM743.58,848.7c-4.4,0-7.97-3.57-7.97-7.97s3.57-7.97,7.97-7.97,7.97,3.57,7.97,7.97-3.57,7.97-7.97,7.97ZM743.58,826c-4.4,0-7.97-3.57-7.97-7.97s3.57-7.97,7.97-7.97,7.97,3.57,7.97,7.97-3.57,7.97-7.97,7.97ZM765.55,866.8c-4.4,0-7.97-3.57-7.97-7.97s3.57-7.97,7.97-7.97,7.97,3.57,7.97,7.97-3.57,7.97-7.97,7.97ZM765.55,844.11c-4.4,0-7.97-3.57-7.97-7.97s3.57-7.97,7.97-7.97,7.97,3.57,7.97,7.97-3.57,7.97-7.97,7.97ZM765.55,821.42c-4.4,0-7.97-3.57-7.97-7.97s3.57-7.97,7.97-7.97,7.97,3.57,7.97,7.97-3.57,7.97-7.97,7.97Z"/>
  <rect x="414.87" y="201.1" width="274.99" height="233.65" rx="4.99" ry="4.99"/>
</svg>