<?xml version="1.0" encoding="UTF-8"?>
<svg fill="#B47CFF" id="Capa_1" data-name="Capa 1" xmlns="http://www.w3.org/2000/svg" viewBox="0 0 1080 1080">
  <path d="M979.83,458.23c-4.41,15.26-10.91,29.85-19.43,43.57-23.46,37.79-60.03,64.94-102.97,76.47-10.58,2.84-20.1,8.65-27.52,16.79-3.41,3.75-6.31,7.92-8.64,12.39,10.9,27.42,20.22,66.5,23.06,121.88,8.09,157.73,76.84,150.99,76.84,150.99,0,0,75.49,22.92,75.49-181.99,0-95.07-8.12-178.23-16.84-240.08Z"/>
  <circle cx="685.49" cy="606.49" r="37.77"/>
  <circle cx="264.25" cy="399.54" r="46.68"/>
  <path d="M894.97,277.04c-73.21-45.67-168.85-23.85-214.98,49.07-19.38,30.64-26.8,65.39-23.52,98.81,3.26,33.24-11.05,65.54-37.7,85.67-11.78,8.89-21.99,20.26-29.8,33.87-31,54.04-12.51,122.64,41.44,153.79,53.94,31.14,122.92,12.66,154.06-41.28,6.63-11.48,11.01-23.64,13.27-35.97,5.33-29,26.53-52.52,55.01-60.16,37.03-9.93,70.5-33.42,92.32-68.56,45.51-73.3,23.07-169.59-50.1-215.24ZM708.23,418.71c18.67,0,33.8,15.13,33.8,33.8s-15.13,33.8-33.8,33.8-33.8-15.13-33.8-33.8,15.13-33.8,33.8-33.8ZM756.48,618.2l-16.24,34.97c-2.54,5.48-7.16,9.72-12.83,11.8l-36.21,13.25c-5.67,2.08-11.94,1.81-17.42-.73l-34.97-16.24c-5.48-2.54-9.72-7.16-11.8-12.83l-13.25-36.21c-2.08-5.67-1.81-11.94.73-17.42l16.24-34.97c2.54-5.48,7.16-9.72,12.83-11.8l36.21-13.25c5.67-2.08,11.94-1.81,17.42.73l34.97,16.24c5.48,2.54,9.72,7.16,11.8,12.83l13.25,36.21c2.08,5.67,1.81,11.94-.73,17.42ZM813.21,459.62c-29.14,0-52.77-23.62-52.77-52.77s23.62-52.77,52.77-52.77,52.77,23.62,52.77,52.77-23.62,52.77-52.77,52.77ZM873.29,332.04h0c-8.86,8.24-21.94,10.17-32.73,4.69-18.26-9.27-40.18-9.46-58.43-.05-10.75,5.54-23.84,3.59-32.7-4.65h0c-10.08-10.08-8.12-27.02,4.09-34.37,35.73-21.5,80.86-21.34,116.45.48,12.05,7.38,13.66,24.27,3.31,33.89ZM922.39,469.72c-7.38,12.05-24.27,13.66-33.89,3.31h0c-8.24-8.86-10.17-21.94-4.69-32.73,9.27-18.26,9.46-40.18.05-58.43-5.54-10.75-3.59-23.84,4.65-32.7h0c10.08-10.08,27.02-8.12,34.37,4.09,21.5,35.73,21.34,80.86-.48,116.45Z"/>
  <path d="M487.18,544.46c-7.81-13.61-18.03-24.98-29.8-33.87-26.65-20.13-40.97-52.43-37.7-85.67,3.28-33.43-4.13-68.17-23.52-98.81-46.13-72.92-141.77-94.73-214.98-49.07-73.17,45.64-95.61,141.93-50.1,215.24,21.82,35.14,55.29,58.62,92.32,68.56,28.48,7.64,49.67,31.17,55.01,60.16,2.27,12.33,6.65,24.49,13.27,35.97,31.14,53.94,100.12,72.43,154.06,41.28,53.95-31.15,72.44-99.75,41.44-153.79ZM306.17,458.01l-36.21,13.25c-5.67,2.08-11.94,1.81-17.42-.73l-34.97-16.24c-5.48-2.54-9.72-7.16-11.8-12.83l-13.25-36.21c-2.08-5.67-1.81-11.94.73-17.42l16.24-34.97c2.54-5.48,7.16-9.72,12.83-11.8l36.21-13.25c5.67-2.08,11.94-1.81,17.42.73l34.97,16.24c5.48,2.54,9.72,7.16,11.8,12.83l13.25,36.21c2.08,5.67,1.81,11.94-.73,17.42l-16.24,34.97c-2.54,5.48-7.16,9.72-12.83,11.8ZM450.58,615.89c0,3.97-3.25,7.22-7.22,7.22h-31.88v31.88c0,3.97-3.25,7.22-7.22,7.22h-26.01c-3.97,0-7.22-3.25-7.22-7.22v-31.88h-31.88c-3.97,0-7.22-3.25-7.22-7.22v-26.01c0-3.97,3.25-7.22,7.22-7.22h31.88v-31.88c0-3.97,3.25-7.22,7.22-7.22h26.01c3.97,0,7.22,3.25,7.22,7.22v31.88h31.88c3.97,0,7.22,3.25,7.22,7.22v26.01Z"/>
  <path d="M246.24,595.05c-7.42-8.15-16.93-13.95-27.52-16.79-42.94-11.52-79.51-38.68-102.97-76.47-6.9-11.11-12.47-22.79-16.68-34.93-8.28,60.94-15.73,141.08-15.73,232.12,0,204.91,75.49,181.99,75.49,181.99,0,0,68.75,6.74,76.84-150.99,2.7-52.64,11.26-90.56,21.46-117.73-2.6-6.32-6.27-12.14-10.89-17.21Z"/>
  <path d="M371.39,206.85c-36.79,8.19-68.53,18.05-95.83,28.68,24.91,1.66,49.37,8.68,71.36,20.57,26.15,14.13,48.45,35.01,64.49,60.36,10.57,16.7,18.17,34.85,22.59,53.94,4.27,18.44,5.49,37.38,3.64,56.29-1.3,13.21.84,26.59,6.19,38.71,1.25,2.82,2.67,5.56,4.24,8.22,50.68-10.23,92.28-9.19,92.28-9.19,5.41-.08,42.96-.95,88.51,7.9,1.28-2.25,2.44-4.56,3.49-6.93,5.34-12.12,7.48-25.5,6.19-38.71-1.86-18.91-.63-37.85,3.64-56.29,4.42-19.09,12.02-37.23,22.59-53.94,16.04-25.36,38.34-46.23,64.49-60.36,23.43-12.67,49.68-19.81,76.29-20.82-27.71-10.85-60.02-20.78-97.59-28.96-110.89-24.14-225.78-24.14-336.55.54ZM540,433.55c-12.29,0-22.25-9.96-22.25-22.25s9.96-22.25,22.25-22.25,22.25,9.96,22.25,22.25-9.96,22.25-22.25,22.25Z"/>
</svg>