<?xml version="1.0" encoding="UTF-8"?>
<svg fill="#B47CFF" id="Capa_1" data-name="Capa 1" xmlns="http://www.w3.org/2000/svg" viewBox="0 0 1080 1080">
  <path d="M281.29,446.56c-51.63,0-93.49,41.85-93.49,93.49s41.85,93.49,93.49,93.49,93.49-41.85,93.49-93.49-41.85-93.49-93.49-93.49ZM355.61,559.37h-24.88c-16.63,0-30.11,13.48-30.11,30.11v24.88c0,2.82-2.02,5.21-4.79,5.72-4.72.86-9.57,1.31-14.54,1.31s-9.82-.45-14.54-1.31c-2.77-.5-4.79-2.9-4.79-5.72v-24.88c0-16.63-13.48-30.11-30.11-30.11h-24.88c-2.82,0-5.22-2.02-5.72-4.79-.86-4.72-1.31-9.57-1.31-14.54s.45-9.82,1.31-14.54c.5-2.77,2.9-4.79,5.72-4.79h24.88c16.63,0,30.11-13.48,30.11-30.11v-24.88c0-2.82,2.02-5.21,4.79-5.72,4.72-.86,9.57-1.31,14.54-1.31s9.82.45,14.54,1.31c2.77.5,4.79,2.9,4.79,5.72v24.88c0,16.63,13.48,30.11,30.11,30.11h24.88c2.82,0,5.21,2.02,5.72,4.79.86,4.72,1.31,9.57,1.31,14.54s-.45,9.82-1.31,14.54c-.5,2.77-2.9,4.79-5.72,4.79Z"/>
  <circle cx="723.16" cy="592.52" r="48.19"/>
  <circle cx="819.53" cy="540" r="48.19"/>
  <circle cx="920.39" cy="502.18" r="48.19"/>
  <path d="M960.84,383.56s-162.59-117.67-407.96-117.67-407.96,117.67-407.96,117.67c0,0-122.15,81.81-76.2,245.42,45.95,163.61,142.32,210.68,178.18,216.28.9.14,1.79.27,2.69.38,34.83,4.48,68.11-16.16,80.45-49.04,7.83-20.88,21.39-46.9,44.61-70.13,48.75-48.75,178.23-49.31,178.23-49.31,0,0,129.48.56,178.23,49.31,23.22,23.22,36.78,49.25,44.61,70.13,12.33,32.88,45.61,53.52,80.45,49.04.9-.12,1.79-.24,2.69-.38,35.86-5.6,132.23-52.67,178.18-216.28,45.95-163.61-76.2-245.42-76.2-245.42ZM281.29,692.9c-84.42,0-152.86-68.44-152.86-152.86s68.44-152.86,152.86-152.86,152.86,68.44,152.86,152.86-68.44,152.86-152.86,152.86ZM711.59,390.47l66.79-25.41c11.67-4.44,24.84,1.48,29.28,13.14h0c4.44,11.67-1.48,24.84-13.14,29.28l-66.79,25.41c-11.67,4.44-24.84-1.48-29.28-13.14h0c-4.44-11.67,1.48-24.84,13.14-29.28ZM948.89,578.44l-32.89,11.4c-35.85,12.43-70.57,27.92-103.77,46.3l-47.54,26.32c-32.84,18.18-73.63,13.35-101.31-12.01h0c-36.54-33.47-36.54-91.06,0-124.54l16.01-14.67c59.68-54.68,135.55-88.42,216.12-96.11l7.87-.75c47.08-4.49,89.74,27.9,98.04,74.47h0c6.9,38.72-15.37,76.71-52.53,89.59Z"/>
  <path d="M717.89,401.67l64.32-24.47c5.13-1.95,10.92.65,12.87,5.78s-.65,10.92-5.78,12.87l-64.32,24.47c-5.13,1.95-10.92-.65-12.87-5.78-1.95-5.13.65-10.92,5.78-12.87Z"/>
</svg>