<?xml version="1.0" encoding="UTF-8"?>
<svg fill="#B47CFF" id="Capa_1" data-name="Capa 1" xmlns="http://www.w3.org/2000/svg" viewBox="0 0 1080 1080">
  <path d="M814.33,224.71l-76.13-12.6c-12.18-2.02-22.3-10.48-26.44-22.11h0c-4.23-11.88-13.95-20.98-26.09-24.41l-8.18-2.31c-89.08-25.16-183.39-25.16-272.47,0l-8.18,2.31c-12.14,3.43-21.86,12.53-26.09,24.41h0c-4.14,11.63-14.26,20.1-26.44,22.11l-76.13,12.6c-83.62,13.84-142.72,89.39-136.02,173.88h0c5.78,72.95,63.18,131.17,136.04,138l89.28,8.36c31.7,2.97,57.54,26.71,63.17,58.05l39.19,217.89c5.6,31.15,14.8,61.54,27.4,90.56l6.65,15.32c17.99,41.43,76.75,41.43,94.75,0l6.65-15.32c12.6-29.03,21.8-59.42,27.4-90.56l39.19-217.89c5.64-31.34,31.47-55.08,63.17-58.05l89.28-8.36c72.86-6.83,130.25-65.05,136.04-138h0c6.7-84.49-52.4-160.04-136.02-173.88ZM277.01,488.62c-49.51,0-89.65-40.14-89.65-89.65s40.14-89.65,89.65-89.65,89.65,40.14,89.65,89.65-40.14,89.65-89.65,89.65ZM541.25,391.13c17.95,0,32.5,14.55,32.5,32.5s-14.55,32.5-32.5,32.5-32.5-14.55-32.5-32.5,14.55-32.5,32.5-32.5ZM541.25,683.61c-48.89,0-88.53-39.64-88.53-88.53s39.64-88.53,88.53-88.53,88.53,39.64,88.53,88.53-39.64,88.53-88.53,88.53ZM829.25,290.05c15.09,0,27.32,12.23,27.32,27.32s-12.23,27.32-27.32,27.32-27.32-12.23-27.32-27.32,12.23-27.32,27.32-27.32ZM778.34,340.96c15.09,0,27.32,12.23,27.32,27.32s-12.23,27.32-27.32,27.32-27.32-12.23-27.32-27.32,12.23-27.32,27.32-27.32ZM703.47,456.12c-19.67,0-35.62-15.95-35.62-35.62s15.95-35.62,35.62-35.62,35.62,15.95,35.62,35.62-15.95,35.62-35.62,35.62ZM764.54,516.43c-19.67,0-35.62-15.95-35.62-35.62s15.95-35.62,35.62-35.62,35.62,15.95,35.62,35.62-15.95,35.62-35.62,35.62ZM829.25,446.51c-15.09,0-27.32-12.23-27.32-27.32s12.23-27.32,27.32-27.32,27.32,12.23,27.32,27.32-12.23,27.32-27.32,27.32ZM880.15,395.61c-15.09,0-27.32-12.23-27.32-27.32s12.23-27.32,27.32-27.32,27.32,12.23,27.32,27.32-12.23,27.32-27.32,27.32Z"/>
  <path d="M266.33,556.5c-39.92-3.74-77.4-21.52-105.55-50.08-14.79-15.01-26.57-32.55-34.88-51.62l-.95,4.69c-18.26,90.23-14.41,183.54,11.23,271.95l5.44,18.75c11.23,38.72,64.63,42.46,81.14,5.67l10.32-22.99c24.72-55.07,42.88-112.86,54.12-172.17l.42-2.22-21.29-1.99Z"/>
  <path d="M816.18,556.5c39.92-3.74,77.4-21.52,105.55-50.08,14.79-15.01,26.57-32.55,34.88-51.62l.95,4.69c18.26,90.23,14.41,183.54-11.23,271.95l-5.44,18.75c-11.23,38.72-64.63,42.46-81.14,5.67l-10.32-22.99c-24.72-55.07-42.88-112.86-54.12-172.17l-.42-2.22,21.29-1.99Z"/>
  <path d="M350.97,414.77c0,5.64-4.58,10.22-10.22,10.22h-37.73v37.73c0,5.64-4.58,10.22-10.22,10.22h-31.59c-5.64,0-10.22-4.58-10.22-10.22v-37.73h-37.73c-5.64,0-10.22-4.58-10.22-10.22v-31.59c0-5.64,4.58-10.22,10.22-10.22h37.73v-37.73c0-5.64,4.58-10.22,10.22-10.22h31.59c5.64,0,10.22,4.58,10.22,10.22v37.73h37.73c5.64,0,10.22,4.58,10.22,10.22v31.59Z"/>
  <path d="M596.77,590.66l-10.25-28.03c-1.61-4.39-4.89-7.97-9.13-9.93l-27.07-12.57c-4.24-1.97-9.09-2.17-13.48-.57l-28.03,10.25c-4.39,1.61-7.97,4.89-9.93,9.13l-12.57,27.07c-1.97,4.24-2.17,9.09-.57,13.48l10.25,28.03c1.61,4.39,4.89,7.97,9.13,9.93l27.07,12.57c4.24,1.97,9.09,2.17,13.48.57l28.03-10.25c4.39-1.61,7.97-4.89,9.93-9.13l12.57-27.07c1.97-4.24,2.17-9.09.57-13.48ZM541.25,627.58c-17.95,0-32.5-14.55-32.5-32.5s14.55-32.5,32.5-32.5,32.5,14.55,32.5,32.5-14.55,32.5-32.5,32.5Z"/>
</svg>