<?xml version="1.0" encoding="UTF-8"?>
<svg fill="#B47CFF" id="Capa_1" data-name="Capa 1" xmlns="http://www.w3.org/2000/svg" viewBox="0 0 1080 1080">
  <path d="M918.8,109.28H161.46c-14.91,0-26.99,12.09-26.99,26.99v362.53c0,2.72,2.21,4.93,4.93,4.93h801.47c2.72,0,4.93-2.21,4.93-4.93V136.27c0-14.91-12.09-26.99-26.99-26.99ZM201.71,347.41c-4.49,0-8.12-3.64-8.12-8.12s3.64-8.12,8.12-8.12,8.12,3.64,8.12,8.12-3.64,8.12-8.12,8.12ZM201.71,314.63c-4.49,0-8.12-3.64-8.12-8.12s3.64-8.12,8.12-8.12,8.12,3.64,8.12,8.12-3.64,8.12-8.12,8.12ZM233.36,347.41c-4.49,0-8.12-3.64-8.12-8.12s3.64-8.12,8.12-8.12,8.12,3.64,8.12,8.12-3.64,8.12-8.12,8.12ZM233.36,314.63c-4.49,0-8.12-3.64-8.12-8.12s3.64-8.12,8.12-8.12,8.12,3.64,8.12,8.12-3.64,8.12-8.12,8.12ZM265.02,347.41c-4.49,0-8.12-3.64-8.12-8.12s3.64-8.12,8.12-8.12,8.12,3.64,8.12,8.12-3.64,8.12-8.12,8.12ZM265.02,314.63c-4.49,0-8.12-3.64-8.12-8.12s3.64-8.12,8.12-8.12,8.12,3.64,8.12,8.12-3.64,8.12-8.12,8.12ZM751.67,466.62c0,4.56-3.69,8.25-8.25,8.25h-404.34c-4.56,0-8.25-3.69-8.25-8.25V162.64c0-4.56,3.69-8.25,8.25-8.25h404.34c4.56,0,8.25,3.69,8.25,8.25v303.98ZM817.49,347.41c-4.49,0-8.12-3.64-8.12-8.12s3.64-8.12,8.12-8.12,8.12,3.64,8.12,8.12-3.64,8.12-8.12,8.12ZM817.49,314.63c-4.49,0-8.12-3.64-8.12-8.12s3.64-8.12,8.12-8.12,8.12,3.64,8.12,8.12-3.64,8.12-8.12,8.12ZM849.14,347.41c-4.49,0-8.12-3.64-8.12-8.12s3.64-8.12,8.12-8.12,8.12,3.64,8.12,8.12-3.64,8.12-8.12,8.12ZM849.14,314.63c-4.49,0-8.12-3.64-8.12-8.12s3.64-8.12,8.12-8.12,8.12,3.64,8.12,8.12-3.64,8.12-8.12,8.12ZM880.8,347.41c-4.49,0-8.12-3.64-8.12-8.12s3.64-8.12,8.12-8.12,8.12,3.64,8.12,8.12-3.64,8.12-8.12,8.12ZM880.8,314.63c-4.49,0-8.12-3.64-8.12-8.12s3.64-8.12,8.12-8.12,8.12,3.64,8.12,8.12-3.64,8.12-8.12,8.12Z"/>
  <path d="M945.79,545.01c-.2-17.24-14.36-31.28-31.64-31.28H166.12c-17.28,0-31.44,14.04-31.64,31.28h0v394.46c0,14.91,12.09,26.99,26.99,26.99h757.34c14.91,0,26.99-12.09,26.99-26.99v-394.46h0ZM899.57,531.1c0-3.24,2.65-5.88,5.88-5.88s5.88,2.65,5.88,5.88v31.1c0,3.24-2.65,5.88-5.88,5.88s-5.88-2.65-5.88-5.88v-31.1ZM880.8,531.1c0-3.24,2.65-5.88,5.88-5.88s5.88,2.65,5.88,5.88v31.1c0,3.24-2.65,5.88-5.88,5.88s-5.88-2.65-5.88-5.88v-31.1ZM850.14,635.61c12.55,0,22.73,10.18,22.73,22.73s-10.18,22.73-22.73,22.73-22.73-10.18-22.73-22.73,10.18-22.73,22.73-22.73ZM534.25,536.92c0-3.24,2.65-5.88,5.88-5.88s5.88,2.65,5.88,5.88v19.46c0,3.24-2.65,5.88-5.88,5.88s-5.88-2.65-5.88-5.88v-19.46ZM286.87,734.51c0,3.88-3.17,7.05-7.05,7.05h-31.14v31.14c0,3.88-3.17,7.05-7.05,7.05h-25.41c-3.88,0-7.05-3.17-7.05-7.05v-31.14h-31.14c-3.88,0-7.05-3.17-7.05-7.05v-25.41c0-3.88,3.17-7.05,7.05-7.05h31.14v-31.14c0-3.88,3.17-7.05,7.05-7.05h25.41c3.88,0,7.05,3.17,7.05,7.05v31.14h31.14c3.88,0,7.05,3.17,7.05,7.05v25.41ZM751.67,906.94c0,4.56-3.69,8.25-8.25,8.25h-404.34c-4.56,0-8.25-3.69-8.25-8.25v-303.98c0-4.56,3.69-8.25,8.25-8.25h404.34c4.56,0,8.25,3.69,8.25,8.25v303.98ZM791.81,907.91c-5.78,0-10.46-4.68-10.46-10.46s4.68-10.46,10.46-10.46,10.46,4.68,10.46,10.46-4.68,10.46-10.46,10.46ZM791.81,863.18c-5.78,0-10.46-4.68-10.46-10.46s4.68-10.46,10.46-10.46,10.46,4.68,10.46,10.46-4.68,10.46-10.46,10.46ZM804.8,726.41c-12.55,0-22.73-10.18-22.73-22.73s10.18-22.73,22.73-22.73,22.73,10.18,22.73,22.73-10.18,22.73-22.73,22.73ZM850.14,771.75c-12.55,0-22.73-10.18-22.73-22.73s10.18-22.73,22.73-22.73,22.73,10.18,22.73,22.73-10.18,22.73-22.73,22.73ZM895.48,726.41c-12.55,0-22.73-10.18-22.73-22.73s10.18-22.73,22.73-22.73,22.73,10.18,22.73,22.73-10.18,22.73-22.73,22.73Z"/>
</svg>