<?xml version="1.0" encoding="UTF-8"?>
<svg fill="#B47CFF" id="Capa_1" data-name="Capa 1" xmlns="http://www.w3.org/2000/svg" viewBox="0 0 1080 1080">
  <path d="M287.93,559.03h-33.34c-4.2,0-7.61-3.4-7.61-7.61v-33.34c0-6.6-5.4-12-12-12h-42.4c-6.6,0-12,5.4-12,12v40.95h-40.95c-6.6,0-12,5.4-12,12v42.4c0,6.6,5.4,12,12,12h33.34c4.2,0,7.61,3.4,7.61,7.61v33.34c0,6.6,5.4,12,12,12h42.4c6.6,0,12-5.4,12-12v-33.34c0-4.2,3.4-7.61,7.61-7.61h33.34c6.6,0,12-5.4,12-12v-42.4c0-6.6-5.4-12-12-12Z"/>
  <path d="M1013.61,337.15H60.25c-14.26,0-25.93,11.67-25.93,25.93v373.79c0,14.26,11.67,25.93,25.93,25.93h953.36c14.26,0,25.93-11.67,25.93-25.93v-373.79c0-14.26-11.67-25.93-25.93-25.93ZM1010.13,721.85c0,6.6-5.4,12-12,12h-353.6v-14.81c0-8.01-6.5-14.51-14.51-14.51h-253.38c-8.01,0-14.51,6.5-14.51,14.51v14.81H77.44c-6.6,0-12-5.4-12-12v-304.62c0-6.6,5.4-12,12-12h285.82c-.73,1.73-1.13,3.63-1.13,5.63v26.62c0,8.01,6.5,14.51,14.51,14.51h253.38c8.01,0,14.51-6.5,14.51-14.51v-26.62c0-2-.4-3.9-1.13-5.63h354.74c6.6,0,12,5.4,12,12v304.62Z"/>
  <path d="M376.64,524.78h253.38c8.01,0,14.51,6.5,14.51,14.51v17.74c0,8.01-6.5,14.51-14.51,14.51h-253.38c-8.01,0-14.51-6.5-14.51-14.51v-17.74c0-8.01,6.5-14.51,14.51-14.51Z"/>
  <path d="M376.64,466.3h253.38c8.01,0,14.51,6.5,14.51,14.51v17.74c0,8.01-6.5,14.51-14.51,14.51h-253.38c-8.01,0-14.51-6.5-14.51-14.51v-17.74c0-8.01,6.5-14.51,14.51-14.51Z"/>
  <path d="M630.02,587.61h-253.38c-8.01,0-14.51,6.5-14.51,14.51v71.84c0,8.01,6.5,14.51,14.51,14.51h253.38c8.01,0,14.51-6.5,14.51-14.51v-71.84c0-8.01-6.5-14.51-14.51-14.51ZM479.79,637.2c0,8.82-7.15,15.97-15.97,15.97h-51.27c-8.82,0-15.97-7.15-15.97-15.97h0c0-8.82,7.15-15.97,15.97-15.97h51.27c8.82,0,15.97,7.15,15.97,15.97h0ZM610.07,637.2c0,8.82-7.15,15.97-15.97,15.97h-51.27c-8.82,0-15.97-7.15-15.97-15.97h0c0-8.82,7.15-15.97,15.97-15.97h51.27c8.82,0,15.97,7.15,15.97,15.97h0Z"/>
  <path d="M783.87,587.61h-80.34c-7.99,0-14.46,6.47-14.46,14.46v75.29c0,7.99,6.47,14.46,14.46,14.46h80.34c7.99,0,14.46-6.47,14.46-14.46v-75.29c0-7.99-6.47-14.46-14.46-14.46ZM743.7,682.58c-23.67,0-42.86-19.19-42.86-42.86s19.19-42.86,42.86-42.86,42.86,19.19,42.86,42.86-19.19,42.86-42.86,42.86Z"/>
  <path d="M914.14,587.61h-80.34c-7.99,0-14.46,6.47-14.46,14.46v75.29c0,7.99,6.47,14.46,14.46,14.46h80.34c7.99,0,14.46-6.47,14.46-14.46v-75.29c0-7.99-6.48-14.46-14.46-14.46ZM873.97,682.58c-23.67,0-42.86-19.19-42.86-42.86s19.19-42.86,42.86-42.86,42.86,19.19,42.86,42.86-19.19,42.86-42.86,42.86Z"/>
</svg>