<?xml version="1.0" encoding="UTF-8"?>
<svg fill="#B47CFF" id="Capa_1" data-name="Capa 1" xmlns="http://www.w3.org/2000/svg" viewBox="0 0 1080 1080">
  <path d="M254.38,263.03c-94.12,0-170.42,76.3-170.42,170.42s76.3,170.42,170.42,170.42,170.42-76.3,170.42-170.42-76.3-170.42-170.42-170.42ZM220.48,350.44c0-5.53,4.49-10.02,10.02-10.02h44.61c5.53,0,10.02,4.49,10.02,10.02v26.66c0,5.29-2.1,10.35-5.84,14.09l-16.32,16.32c-5.62,5.62-14.72,5.62-20.34,0l-16.32-16.32c-3.74-3.74-5.84-8.81-5.84-14.09v-26.66ZM197.18,465.05h-26.66c-5.53,0-10.02-4.49-10.02-10.02v-44.61c0-5.53,4.49-10.02,10.02-10.02h26.66c5.29,0,10.36,2.1,14.09,5.84l16.32,16.32c5.62,5.62,5.62,14.72,0,20.34l-16.32,16.32c-3.74,3.74-8.81,5.84-14.09,5.84ZM285.13,515.02c0,5.53-4.49,10.02-10.02,10.02h-44.61c-5.53,0-10.02-4.49-10.02-10.02v-26.66c0-5.29,2.1-10.36,5.84-14.09l16.32-16.32c5.62-5.62,14.72-5.62,20.34,0l16.32,16.32c3.74,3.74,5.84,8.81,5.84,14.09v26.66ZM345.11,455.03c0,5.53-4.49,10.02-10.02,10.02h-26.66c-5.29,0-10.36-2.1-14.09-5.84l-16.32-16.32c-5.62-5.62-5.62-14.72,0-20.34l16.32-16.32c3.74-3.74,8.81-5.84,14.09-5.84h26.66c5.53,0,10.02,4.49,10.02,10.02v44.61Z"/>
  <path d="M342.08,270.87l-4.46-20.55c-2.71-12.52-12.34-22.38-24.79-25.41-38.1-9.25-77.93-8.65-115.73,1.76l-.65.18c-11.74,3.23-20.8,12.6-23.64,24.44l-4.49,18.71c25.7-13.56,54.98-21.25,86.05-21.25s61.61,8.01,87.7,22.12Z"/>
  <path d="M892.62,270l-4.49-18.71c-2.84-11.84-11.9-21.2-23.64-24.44l-.65-.18c-37.8-10.41-77.63-11.02-115.73-1.76-12.45,3.02-22.07,12.89-24.79,25.41l-4.46,20.55c26.09-14.1,55.96-22.12,87.7-22.12s60.35,7.69,86.05,21.25Z"/>
  <path d="M994.14,724.9l-21.81-209.94c-30.11,61.12-93.02,103.17-165.76,103.17-102,0-184.69-82.69-184.69-184.69,0-41.47,13.67-79.75,36.75-110.58h-256.31c23.08,30.83,36.75,69.11,36.75,110.58,0,102-82.69,184.69-184.69,184.69-72.74,0-135.64-42.06-165.76-103.17l-21.81,209.94c-4.83,46.53,21.92,90.58,65.44,107.75h0c48.86,19.27,104.43-.83,129.67-46.89l112.37-205.14c6.44-11.75,18.77-19.05,32.16-19.05h248.03c13.4,0,25.73,7.31,32.16,19.05l112.37,205.14c25.24,46.07,80.8,66.16,129.67,46.89h0c43.52-17.16,70.28-61.22,65.44-107.75ZM506.1,502.79c0,4.76-3.86,8.62-8.62,8.62h-32.08c-4.76,0-8.62-3.86-8.62-8.62v-13.02c0-4.76,3.86-8.62,8.62-8.62h32.08c4.76,0,8.62,3.86,8.62,8.62v13.02ZM601.85,499.27l-39.67,10.6c-2.89.77-5.72-1.4-5.72-4.39v-18.41c0-2.99,2.84-5.17,5.72-4.39l39.67,10.6c3.06.82,3.06,5.17,0,5.99Z"/>
  <path d="M806.57,263.03c-94.12,0-170.42,76.3-170.42,170.42s76.3,170.42,170.42,170.42,170.42-76.3,170.42-170.42-76.3-170.42-170.42-170.42ZM730.97,469.79c-20.61,0-37.32-16.71-37.32-37.32s16.71-37.32,37.32-37.32,37.32,16.71,37.32,37.32-16.71,37.32-37.32,37.32ZM813.7,552.53c-20.61,0-37.32-16.71-37.32-37.32s16.71-37.32,37.32-37.32,37.32,16.71,37.32,37.32-16.71,37.32-37.32,37.32ZM813.7,387.05c-20.61,0-37.32-16.71-37.32-37.32s16.71-37.32,37.32-37.32,37.32,16.71,37.32,37.32-16.71,37.32-37.32,37.32ZM896.44,469.79c-20.61,0-37.32-16.71-37.32-37.32s16.71-37.32,37.32-37.32,37.32,16.71,37.32,37.32-16.71,37.32-37.32,37.32Z"/>
</svg>