<?xml version="1.0" encoding="UTF-8"?>
<svg fill="#B47CFF" id="Capa_1" data-name="Capa 1" xmlns="http://www.w3.org/2000/svg" viewBox="0 0 1080 1080">
  <path d="M219.7,344.23h-43.63c-11.08,0-21.74,4.3-29.7,12.01-6.67,6.46-9.16,8.46-12.92,13.26h58.43c3.83,0,7.46-1.67,9.96-4.56l17.85-20.71Z"/>
  <path d="M206.72,746.73h-34.74c-12.05,0-22.41-11.77-22.41-11.77h-15.31c1.86,2.18,3.73,4.34,5.65,6.47,9.24,10.21,22.43,15.95,36.2,15.95h41.27l-10.65-10.65Z"/>
  <path d="M860.3,344.23h43.63c11.08,0,21.74,4.3,29.7,12.01,6.67,6.46,9.16,8.46,12.92,13.26h-58.43c-3.83,0-7.46-1.67-9.96-4.56l-17.85-20.71Z"/>
  <path d="M956.69,380.29h-67.41c-7.09,0-13.84-3.04-18.54-8.35l-18.33-20.69c-3.95-4.46-9.63-7.02-15.59-7.02H243.17c-5.96,0-11.64,2.55-15.59,7.02l-18.33,20.69c-4.7,5.31-11.45,8.35-18.54,8.35h-67.41c-35.7,47.49-56.87,106.53-56.87,170.52s21.65,124.33,58.07,172.08h60.58c10.34,0,20.21,4.31,27.23,11.9l12.54,13.54c5.35,5.77,12.86,9.05,20.72,9.05h588.84c7.87,0,15.38-3.28,20.72-9.05l12.54-13.54c7.02-7.58,16.89-11.9,27.23-11.9h60.58c36.42-47.76,58.07-107.39,58.07-172.08s-21.17-123.03-56.87-170.52ZM144.04,462.84c7.78-2.83,16.18-4.38,24.94-4.38s17.15,1.55,24.93,4.38v25.53c0,4.93-1.96,9.65-5.44,13.13l-9.53,9.53c-5.5,5.51-14.43,5.51-19.93,0l-9.53-9.53c-3.48-3.48-5.44-8.2-5.44-13.13v-25.53ZM188.47,561.1c3.48,3.48,5.44,8.2,5.44,13.13v25.53c-7.78,2.83-16.17,4.38-24.93,4.38s-17.16-1.55-24.94-4.38v-25.53c0-4.93,1.96-9.65,5.44-13.13l9.53-9.53c5.5-5.51,14.43-5.51,19.93,0l9.53,9.53ZM100.52,556.24c-2.83-7.78-4.38-16.18-4.38-24.94s1.55-17.15,4.38-24.93h25.53c4.93,0,9.65,1.96,13.13,5.44l9.53,9.53c5.51,5.5,5.51,14.43,0,19.93l-9.53,9.53c-3.48,3.48-8.2,5.44-13.13,5.44h-25.53ZM168.98,691.19c-17.33,0-31.38-14.05-31.38-31.38s14.05-31.38,31.38-31.38,31.38,14.05,31.38,31.38-14.05,31.38-31.38,31.38ZM211.91,556.24c-4.93,0-9.65-1.96-13.13-5.44l-9.53-9.53c-5.51-5.5-5.51-14.43,0-19.93l9.53-9.53c3.48-3.48,8.2-5.44,13.13-5.44h25.53c2.83,7.78,4.38,16.17,4.38,24.93s-1.55,17.16-4.38,24.94h-25.53ZM240.98,695.37h-10.37c-3.09,0-5.61-2.53-5.61-5.61s2.53-5.61,5.61-5.61h10.37c3.09,0,5.61,2.53,5.61,5.61s-2.53,5.61-5.61,5.61ZM299.17,726.94c-3.63,9.65-13.95,16.62-26.1,16.62s-22.47-6.96-26.1-16.62c-1.39-3.7,1.32-7.66,5.27-7.66h41.66c3.96,0,6.67,3.96,5.27,7.66ZM346.72,741.69h-8.22c-6.16,0-11.21-5.04-11.21-11.21s5.04-11.21,11.21-11.21h8.22c6.16,0,11.21,5.04,11.21,11.21s-5.04,11.21-11.21,11.21ZM411.18,741.69h-8.22c-6.16,0-11.21-5.04-11.21-11.21s5.04-11.21,11.21-11.21h8.22c6.16,0,11.21,5.04,11.21,11.21s-5.04,11.21-11.21,11.21ZM265.36,695.37v-315.17h551.35v315.17H265.36ZM646.46,741.69h-1.84c-6.16,0-11.21-5.04-11.21-11.21s5.04-11.21,11.21-11.21h1.84c6.16,0,11.21,5.04,11.21,11.21s-5.04,11.21-11.21,11.21ZM690.57,741.69h-1.84c-6.16,0-11.21-5.04-11.21-11.21s5.04-11.21,11.21-11.21h1.84c6.16,0,11.21,5.04,11.21,11.21s-5.04,11.21-11.21,11.21ZM774.22,726.94c-3.63,9.65-13.95,16.62-26.1,16.62s-22.47-6.96-26.1-16.62c-1.39-3.7,1.32-7.66,5.27-7.66h41.66c3.96,0,6.67,3.96,5.27,7.66ZM838.98,726.94c-3.63,9.65-13.95,16.62-26.1,16.62s-22.47-6.96-26.1-16.62c-1.39-3.7,1.32-7.66,5.27-7.66h41.66c3.96,0,6.67,3.96,5.27,7.66ZM848.52,695.37h-10.37c-3.09,0-5.61-2.53-5.61-5.61s2.53-5.61,5.61-5.61h10.37c3.09,0,5.61,2.53,5.61,5.61s-2.53,5.61-5.61,5.61ZM857.75,556.55c-13.93,0-25.21-11.29-25.21-25.21s11.29-25.21,25.21-25.21,25.21,11.29,25.21,25.21-11.29,25.21-25.21,25.21ZM913.36,612.16c-13.93,0-25.21-11.29-25.21-25.21s11.29-25.21,25.21-25.21,25.21,11.29,25.21,25.21-11.29,25.21-25.21,25.21ZM913.36,500.94c-13.93,0-25.21-11.29-25.21-25.21s11.29-25.21,25.21-25.21,25.21,11.29,25.21,25.21-11.29,25.21-25.21,25.21ZM968.98,556.55c-13.93,0-25.21-11.29-25.21-25.21s11.29-25.21,25.21-25.21,25.21,11.29,25.21,25.21-11.29,25.21-25.21,25.21Z"/>
</svg>