<?xml version="1.0" encoding="UTF-8"?>
<svg fill="#B47CFF" id="Capa_1" data-name="Capa 1" xmlns="http://www.w3.org/2000/svg" viewBox="0 0 1080 1080">
  <path d="M858.3,416.65h0c-15.77-22.25-46.88-27.54-69.13-11.77l-100.59,71.32c-22.25,15.77-27.54,46.88-11.77,69.13h0c15.77,22.25,46.88,27.54,69.13,11.77l100.59-71.32c22.25-15.77,27.54-46.88,11.77-69.13ZM738.77,545.99c-16.66,11.81-39.74,7.88-51.56-8.78s-7.88-39.74,8.78-51.56c16.66-11.81,39.74-7.88,51.56,8.78s7.88,39.74-8.78,51.56ZM839.11,476.33c-16.66,11.81-39.74,7.88-51.56-8.78s-7.88-39.74,8.78-51.56,39.74-7.88,51.56,8.78,7.88,39.74-8.78,51.56Z"/>
  <path d="M951.36,494.39h0c-15.77-22.25-46.88-27.54-69.13-11.77l-100.59,71.32c-22.25,15.77-27.54,46.88-11.77,69.13h0c15.77,22.25,46.88,27.54,69.13,11.77l100.59-71.32c22.25-15.77,27.54-46.88,11.77-69.13ZM831.83,623.72c-16.66,11.81-39.74,7.88-51.56-8.78-11.81-16.66-7.88-39.74,8.78-51.56s39.74-7.88,51.56,8.78,7.88,39.74-8.78,51.56ZM932.17,554.07c-16.66,11.81-39.74,7.88-51.56-8.78-11.81-16.66-7.88-39.74,8.78-51.56s39.74-7.88,51.56,8.78c11.81,16.66,7.88,39.74-8.78,51.56Z"/>
  <path d="M815.18,316.28H264.82c-110.8,0-203,90.65-202.8,201.45.2,110.88,90.15,200.71,201.08,200.71,46.19,0,88.73-15.58,122.68-41.76,13.04-10.06,29.11-15.39,45.58-15.39h217.29c16.47,0,32.54,5.33,45.58,15.39,33.95,26.18,76.49,41.76,122.68,41.76,110.93,0,200.88-89.83,201.08-200.71.2-110.8-92-201.45-202.8-201.45ZM331.59,535.22c0,6.38-5.17,11.55-11.55,11.55h-42.66v42.66c0,6.38-5.17,11.55-11.55,11.55h-35.72c-6.38,0-11.55-5.17-11.55-11.55v-42.66h-42.66c-6.38,0-11.55-5.17-11.55-11.55v-35.72c0-6.38,5.17-11.55,11.55-11.55h42.66v-42.66c0-6.38,5.17-11.55,11.55-11.55h35.72c6.38,0,11.55,5.17,11.55,11.55v42.66h42.66c6.38,0,11.55,5.17,11.55,11.55v35.72ZM480.96,545.26l-41.95,31.79c-5.73,4.35-13.91,3.22-18.25-2.52-4.35-5.73-3.22-13.91,2.52-18.25l41.95-31.79c5.73-4.35,13.91-3.22,18.25,2.52,4.35,5.73,3.22,13.91-2.52,18.25ZM586.21,545.26l-41.95,31.79c-5.73,4.35-13.91,3.22-18.25-2.52h0c-4.35-5.73-3.22-13.91,2.52-18.25l41.95-31.79c5.73-4.35,13.91-3.22,18.25,2.52s3.22,13.91-2.52,18.25ZM818.08,692.95c-97.25,0-176.09-78.84-176.09-176.09s78.84-176.09,176.09-176.09,176.09,78.84,176.09,176.09-78.84,176.09-176.09,176.09Z"/>
</svg>