<svg xmlns="http://www.w3.org/2000/svg" viewBox="0 0 200 200" stroke="#c9a94e" fill="#c9a94e">
  <circle cx="100" cy="100" r="96" fill="none" stroke-width="1"/>
  <circle cx="100" cy="100" r="92" fill="none" stroke-width="0.5"/>
  <line x1="188" y1="100" x2="196" y2="100" stroke-width="1.5"/>
  <line x1="185.6" y1="122.9" x2="193.5" y2="124.9" stroke-width="0.5"/>
  <line x1="178.4" y1="144" x2="186" y2="148" stroke-width="0.5"/>
  <line x1="166.9" y1="162.1" x2="173.6" y2="168.1" stroke-width="1.5"/>
  <line x1="151.6" y1="176.2" x2="156.8" y2="183.6" stroke-width="0.5"/>
  <line x1="133.3" y1="185.6" x2="136.5" y2="193.8" stroke-width="0.5"/>
  <line x1="112.9" y1="189.7" x2="113.9" y2="198.2" stroke-width="1.5"/>
  <line x1="91.5" y1="188.5" x2="90.5" y2="197" stroke-width="0.5"/>
  <line x1="71" y1="182.1" x2="68.1" y2="190.1" stroke-width="0.5"/>
  <line x1="52.7" y1="170.9" x2="47.8" y2="177.6" stroke-width="1.5"/>
  <line x1="37.8" y1="155.6" x2="31.3" y2="160.6" stroke-width="0.5"/>
  <line x1="27.3" y1="137.2" x2="19.5" y2="140" stroke-width="0.5"/>
  <line x1="21.6" y1="116.6" x2="13.3" y2="117.1" stroke-width="1.5"/>
  <line x1="21" y1="95" x2="12.6" y2="93.2" stroke-width="0.5"/>
  <line x1="25.4" y1="73.9" x2="17.4" y2="70.2" stroke-width="0.5"/>
  <line x1="34.6" y1="54.7" x2="27.5" y2="49.3" stroke-width="1.5"/>
  <line x1="48" y1="38.8" x2="42.3" y2="32.1" stroke-width="0.5"/>
  <line x1="64.7" y1="27" x2="60.7" y2="19.3" stroke-width="0.5"/>
  <line x1="83.8" y1="19.8" x2="81.8" y2="11.6" stroke-width="1.5"/>
  <line x1="104.6" y1="17.6" x2="104.8" y2="9.1" stroke-width="0.5"/>
  <line x1="125.2" y1="20.6" x2="127.6" y2="12.4" stroke-width="0.5"/>
  <line x1="144.5" y1="28.5" x2="149" y2="21" stroke-width="1.5"/>
  <line x1="161" y1="40.8" x2="167.3" y2="35" stroke-width="0.5"/>
  <line x1="173.7" y1="56.8" x2="181.5" y2="52.9" stroke-width="0.5"/>
  <circle cx="100" cy="100" r="72" fill="none" stroke-width="0.5"/>
  <polygon points="100,32 158,85 134,148 66,148 42,85" fill="none" stroke-width="0.8"/>
  <polygon points="100,168 42,115 66,52 134,52 158,115" fill="none" stroke-width="0.8"/>
  <circle cx="100" cy="100" r="28" fill="none" stroke-width="0.8"/>
  <circle cx="100" cy="100" r="8" fill="none" stroke-width="0.5"/>
  <circle cx="100" cy="32" r="2.5" stroke="none"/>
  <circle cx="158" cy="85" r="2.5" stroke="none"/>
  <circle cx="134" cy="148" r="2.5" stroke="none"/>
  <circle cx="66" cy="148" r="2.5" stroke="none"/>
  <circle cx="42" cy="85" r="2.5" stroke="none"/>
  <circle cx="100" cy="168" r="2.5" stroke="none"/>
</svg>
